<svg xmlns="http://www.w3.org/2000/svg" width="384pt" height="384pt" viewBox="0 0 384 384" version="1.1" class="iconadda">
<g id="animate_0" transform="rotate(0,192,192) translate(0,0) scale(1,1)">
<g id="animate_1" style="transform-origin: 192px 187.338px;"><path style="stroke-width: 22; stroke-linecap: round; stroke-linejoin: round; stroke-opacity: 1; stroke-miterlimit: 10;" d="M 76.25148 205.876913 L 33.480451 230.337587 C 23.12229 236.258769 19.268575 249.606163 24.872085 260.146594 C 39.333932 287.367362 70.12199 299.454487 98.233279 290.945068 M 435.68852 205.876913 L 478.459549 230.337587 C 488.81771 236.258769 492.671425 249.606163 487.067915 260.146594 C 472.606068 287.367362 441.81801 299.454487 413.706721 290.945068 " transform="matrix(0.750088,0,0,0.750088,0,0)" id="animate_2" stroke="#000000" data-original="#000000" fill="none" stroke-width="22"></path>
</g><g id="animate_3" style="transform-origin: 191.998px 98.8145px;"><path style="stroke-width: 22; stroke-linecap: round; stroke-linejoin: round; stroke-opacity: 1; stroke-miterlimit: 10;" d="M 110.179795 210.798211 L 107.487402 210.798211 C 52.269916 210.798211 7.499121 166.548189 7.499121 111.966044 L 7.499121 64.888228 C 7.499121 52.045983 25.122056 47.963129 30.907836 59.430535 L 53.665585 104.420054 C 62.133343 121.157675 79.443814 127.969377 98.384303 127.969377 L 169.344736 127.969377 M 342.590056 127.964169 L 413.55049 127.964169 C 432.490978 127.964169 449.801449 121.152467 458.269207 104.414846 L 481.026956 59.425327 C 483.115253 55.285187 487.396002 52.676118 492.077745 52.676118 C 498.910277 52.676118 504.435671 58.144227 504.435671 64.888228 L 504.435671 111.966044 C 504.435671 166.548189 459.664877 210.798211 404.44739 210.798211 L 401.754997 210.798211 " transform="matrix(0.750088,0,0,0.750088,0,0)" id="animate_4" stroke="#000000" data-original="#000000" fill="none" stroke-width="22"></path>
</g><g id="animate_5" style="transform-origin: 192px 187.785px;"><path style="stroke-width: 22; stroke-linecap: round; stroke-linejoin: round; stroke-opacity: 1; stroke-miterlimit: 10;" d="M 210.793003 105.492844 C 163.522502 121.90238 127.636083 162.402841 110.190211 210.787795 L 110.179795 210.798211 C 102.238018 232.795633 97.847907 256.969883 97.847907 282.326286 C 97.847907 285.216572 97.9781 288.086028 98.228071 290.945068 C 101.920346 333.643188 132.406357 372.555294 165.616006 402.843411 M 402.280977 331.565307 C 409.540543 316.140031 414.092093 299.574265 414.092093 282.326286 C 414.092093 256.964675 409.701982 232.795633 401.760205 210.798211 L 401.749789 210.787795 C 389.49081 176.786572 368.727618 147.977449 342.590056 127.969377 C 317.707556 108.929942 287.940211 97.858323 255.97 97.858323 C 250.840393 97.858323 245.768071 98.144747 240.763449 98.701974 M 346.318786 402.843411 C 359.838035 390.516731 372.904212 376.757927 383.897715 361.900293 " transform="matrix(0.750088,0,0,0.750088,0,0)" id="animate_6" stroke="#000000" data-original="#000000" fill="none" stroke-width="22"></path>
</g><g id="animate_7" style="transform-origin: 192px 302.131px;"><path style="stroke-width: 22; stroke-linecap: round; stroke-linejoin: round; stroke-opacity: 1; stroke-miterlimit: 10;" d="M 346.323994 402.791334 C 346.323994 433.980387 305.870402 459.263882 255.97 459.263882 C 206.069598 459.263882 165.616006 433.980387 165.616006 402.791334 C 165.616006 371.607489 206.069598 346.323994 255.97 346.323994 C 305.870402 346.323994 346.323994 371.607489 346.323994 402.791334 " transform="matrix(0.750088,0,0,0.750088,0,0)" id="animate_8" stroke="#000000" data-original="#000000" fill="none" stroke-width="22"></path>
</g><g id="animate_9" style="transform-origin: 163.762px 299.307px;"><path style="stroke-width: 22; stroke-linecap: round; stroke-linejoin: round; stroke-opacity: 1; stroke-miterlimit: 10;" d="M 233.384105 399.031358 C 233.384105 407.348092 226.640104 414.086885 218.323371 414.086885 C 210.006637 414.086885 203.262636 407.348092 203.262636 399.031358 C 203.262636 390.714624 210.006637 383.970623 218.323371 383.970623 C 226.640104 383.970623 233.384105 390.714624 233.384105 399.031358 " transform="matrix(0.750088,0,0,0.750088,0,0)" id="animate_10" stroke="#000000" data-original="#000000" fill="none" stroke-width="22"></path>
</g><g id="animate_11" style="transform-origin: 220.238px 299.307px;"><path style="stroke-width: 22; stroke-linecap: round; stroke-linejoin: round; stroke-opacity: 1; stroke-miterlimit: 10;" d="M 308.677364 399.031358 C 308.677364 407.348092 301.933363 414.086885 293.616629 414.086885 C 285.299896 414.086885 278.555895 407.348092 278.555895 399.031358 C 278.555895 390.714624 285.299896 383.970623 293.616629 383.970623 C 301.933363 383.970623 308.677364 390.714624 308.677364 399.031358 " transform="matrix(0.750088,0,0,0.750088,0,0)" id="animate_12" stroke="#000000" data-original="#000000" fill="none" stroke-width="22"></path>
</g><g id="animate_13" style="transform-origin: 192px 159.394px;"><path style="stroke-width: 22; stroke-linecap: round; stroke-linejoin: round; stroke-opacity: 1; stroke-miterlimit: 10;" d="M 193.518986 270.660987 L 193.518986 281.029563 M 318.421014 270.660987 L 318.421014 281.029563 M 181.280837 259.136296 L 205.345725 265.583457 M 330.659163 259.136296 L 306.594275 265.583457 M 286.086262 174.088972 L 278.587141 174.088972 L 278.592349 174.088972 C 274.415755 174.088972 271.030735 170.703952 271.030735 166.527358 L 271.030735 159.45527 C 271.030735 151.346845 264.802298 144.368497 256.699081 143.988333 C 248.049053 143.58213 240.914473 150.471948 240.914473 159.028237 L 240.914473 166.52215 L 240.909265 166.527358 C 240.909265 170.703952 237.524245 174.088972 233.347651 174.088972 L 225.84853 174.088972 C 217.531797 174.088972 210.787795 180.832973 210.787795 189.149706 C 210.787795 197.46644 217.531797 204.210441 225.84853 204.210441 L 233.347651 204.210441 L 233.347651 204.205234 C 237.524245 204.205234 240.909265 207.590253 240.909265 211.766847 L 240.909265 218.838935 C 240.909265 226.94736 247.137702 233.925709 255.240919 234.305872 C 263.890947 234.712075 271.025527 227.822257 271.025527 219.265968 L 271.025527 211.766847 L 271.030735 211.766847 C 271.030735 207.590253 274.415755 204.205234 278.592349 204.205234 L 286.09147 204.205234 C 294.408203 204.205234 301.152205 197.461232 301.152205 189.144499 C 301.152205 180.827765 294.408203 174.083764 286.09147 174.083764 Z M 286.086262 174.088972 " transform="matrix(0.750088,0,0,0.750088,0,0)" id="animate_14" stroke="#000000" data-original="#000000" fill="none" stroke-width="22"></path>
</g></g>
</svg>