<!DOCTYPE svg PUBLIC "-//W3C//DTD SVG 1.1//EN" "http://www.w3.org/Graphics/SVG/1.1/DTD/svg11.dtd">
<!-- Uploaded to: SVG Repo, www.svgrepo.com, Transformed by: SVG Repo Mixer Tools -->
<svg fill="#000000" height="800px" width="800px" version="1.1" id="Layer_1" xmlns="http://www.w3.org/2000/svg" xmlns:xlink="http://www.w3.org/1999/xlink" viewBox="0 0 512.00 512.00" xml:space="preserve" stroke="#000000" stroke-width="5.632">
<g id="SVGRepo_bgCarrier" stroke-width="0"/>
<g id="SVGRepo_tracerCarrier" stroke-linecap="round" stroke-linejoin="round"/>
<g id="SVGRepo_iconCarrier"> <g> <g> <path d="M211.862,194.207c-14.604,0-26.483,11.879-26.483,26.483s11.879,26.483,26.483,26.483s26.483-11.879,26.483-26.483 S226.466,194.207,211.862,194.207z M211.862,229.517c-4.866,0-8.828-3.961-8.828-8.828c0-4.866,3.961-8.828,8.828-8.828 s8.828,3.961,8.828,8.828C220.69,225.556,216.729,229.517,211.862,229.517z"/> </g> </g> <g> <g> <path d="M300.138,194.207c-14.604,0-26.483,11.879-26.483,26.483s11.879,26.483,26.483,26.483s26.483-11.879,26.483-26.483 S314.742,194.207,300.138,194.207z M300.138,229.517c-4.866,0-8.828-3.961-8.828-8.828c0-4.866,3.961-8.828,8.828-8.828 c4.866,0,8.828,3.961,8.828,8.828C308.966,225.556,305.005,229.517,300.138,229.517z"/> </g> </g> <g> <g> <path d="M226.358,336.194c-4.104-10.229-11.875-17.543-21.319-20.073c-18.815-5.078-39.229,9.987-45.53,33.496 c-2.935,10.944-2.448,22.198,1.367,31.698c4.104,10.229,11.875,17.543,21.319,20.073c2.453,0.659,4.935,0.974,7.41,0.974 c16.487,0,32.642-14.03,38.121-34.47C230.66,356.949,230.172,345.694,226.358,336.194z M210.672,363.324 c-3.72,13.866-14.715,23.47-23.909,21.013c-5.513-1.478-8.319-6.647-9.504-9.599c-2.366-5.888-2.621-13.379-0.698-20.552 c3.323-12.397,12.427-21.401,20.923-21.401c1.009,0,2.008,0.125,2.987,0.388c5.513,1.479,8.319,6.647,9.504,9.599 C212.341,348.66,212.595,356.151,210.672,363.324z"/> </g> </g> <g> <g> <path d="M351.311,349.616c-6.302-23.509-26.72-38.552-45.53-33.496c-9.444,2.53-17.215,9.845-21.319,20.073 c-3.815,9.5-4.302,20.754-1.367,31.698c5.479,20.444,21.634,34.47,38.121,34.47c2.474,0,4.957-0.315,7.409-0.974 c9.444-2.53,17.216-9.845,21.319-20.073C353.759,371.815,354.246,360.56,351.311,349.616z M333.56,374.737 c-1.185,2.953-3.991,8.121-9.504,9.599c-9.211,2.457-20.194-7.146-23.91-21.013c-1.922-7.172-1.668-14.664,0.698-20.552 c1.185-2.953,3.991-8.121,9.504-9.599c0.978-0.263,1.978-0.388,2.987-0.388c8.496,0,17.599,9.004,20.922,21.401 C336.181,361.358,335.927,368.849,333.56,374.737z"/> </g> </g> <g> <g> <path d="M510.888,141.19c-41.306-74.35-126.188-62.365-146.716-58.219C332.362,53.404,292.383,35.31,256,35.31 c-36.382,0-76.36,18.093-108.17,47.657C127.308,78.814,42.429,66.826,1.112,141.19c-1.914,3.448-1.315,7.746,1.474,10.53 c0.927,0.927,18.06,17.453,58.534,17.453c9.917,0,21.25-1.004,34.077-3.462c-4.432,14.707-6.921,30.168-6.921,46.152 c0,46.412,16.244,80.927,47.915,103.069c-13.499,16.234-21.432,35.328-21.432,55.828c0,58.41,63.362,105.931,141.242,105.931 s141.242-47.522,141.242-105.931c0-20.502-7.935-39.598-21.437-55.833c31.669-22.139,47.919-56.655,47.919-103.064 c0-15.985-2.489-31.446-6.921-46.152c12.826,2.458,24.155,3.462,34.077,3.462c40.47,0,57.608-16.526,58.534-17.453 C512.203,148.935,512.802,144.638,510.888,141.19z M20.664,142.922c31.614-48.502,86.164-48.108,112.334-44.647 c-12.333,14.171-22.788,30.258-30.496,47.735C56.419,157.24,31.002,148.501,20.664,142.922z M379.586,370.759 c0,48.677-55.44,88.276-123.586,88.276s-123.586-39.599-123.586-88.276c0-48.677,55.44-88.276,123.586-88.276 S379.586,322.082,379.586,370.759z M363.356,302.103c-25.927-22.77-64.398-37.276-107.356-37.276 c-42.952,0-81.418,14.502-107.345,37.266c-28.612-18.792-42.724-48.281-42.724-90.232c0-85.573,82.517-158.897,150.069-158.897 s150.069,73.323,150.069,158.897C406.069,253.819,391.966,283.306,363.356,302.103z M409.498,146.011 c-7.708-17.476-18.162-33.56-30.491-47.733c26.167-3.456,80.709-3.848,112.321,44.632 C480.935,148.522,455.509,157.22,409.498,146.011z"/> </g> </g> </g>
</svg>